<svg width="149" height="28" viewBox="0 0 149 28" fill="none" xmlns="http://www.w3.org/2000/svg">
<path d="M1.33066 22V5.94184H4.60093L10.5776 14.6926H9.15676L15.1109 5.94184H18.3812V22H13.9156V13.3394L14.5696 13.5198L11.2994 18.211H8.41249L5.16477 13.5198L5.79627 13.3394V22H1.33066ZM26.3657 22.2706C25.1478 22.2706 24.0577 22.0226 23.0954 21.5264C22.1482 21.0152 21.3964 20.316 20.84 19.4289C20.2988 18.5418 20.0281 17.5419 20.0281 16.4293C20.0281 15.3166 20.2988 14.3243 20.84 13.4522C21.3813 12.5801 22.1256 11.896 23.0729 11.3998C24.0351 10.8886 25.1252 10.633 26.3431 10.633C27.561 10.633 28.6436 10.8886 29.5908 11.3998C30.5381 11.896 31.2824 12.5801 31.8236 13.4522C32.38 14.3243 32.6581 15.3166 32.6581 16.4293C32.6581 17.5419 32.3875 18.5418 31.8462 19.4289C31.3049 20.316 30.5606 21.0152 29.6134 21.5264C28.6661 22.0226 27.5836 22.2706 26.3657 22.2706ZM26.3431 18.3914C26.719 18.3914 27.0423 18.3162 27.3129 18.1659C27.5986 18.0005 27.8166 17.775 27.967 17.4893C28.1173 17.1886 28.1925 16.8427 28.1925 16.4518C28.1925 16.0609 28.1098 15.7226 27.9444 15.4369C27.7941 15.1362 27.5836 14.9107 27.3129 14.7603C27.0423 14.5949 26.719 14.5122 26.3431 14.5122C25.9823 14.5122 25.659 14.5949 25.3733 14.7603C25.1027 14.9257 24.8847 15.1587 24.7193 15.4595C24.5689 15.7451 24.4937 16.0834 24.4937 16.4744C24.4937 16.8503 24.5689 17.1886 24.7193 17.4893C24.8847 17.775 25.1027 18.0005 25.3733 18.1659C25.659 18.3162 25.9823 18.3914 26.3431 18.3914ZM37.0143 22L32.6615 10.9036H37.3526L39.9012 20.3536H38.2999L40.8259 10.9036H45.4945L41.1416 21.9774L37.0143 22ZM46.475 22V10.9036H50.8955V22H46.475ZM48.6853 9.86617C48.0387 9.86617 47.4975 9.64815 47.0614 9.21211C46.6404 8.76104 46.4299 8.21224 46.4299 7.5657C46.4299 6.91916 46.6404 6.37788 47.0614 5.94184C47.4975 5.49077 48.0387 5.26523 48.6853 5.26523C49.3469 5.26523 49.8881 5.49077 50.3091 5.94184C50.7301 6.37788 50.9406 6.91916 50.9406 7.5657C50.9406 8.21224 50.7301 8.76104 50.3091 9.21211C49.8881 9.64815 49.3469 9.86617 48.6853 9.86617ZM58.7687 22.2706C57.4756 22.2706 56.3404 22.0301 55.3631 21.5489C54.3858 21.0527 53.6189 20.3686 53.0626 19.4966C52.5213 18.6094 52.2507 17.5945 52.2507 16.4518C52.2507 15.3241 52.5138 14.3243 53.0401 13.4522C53.5813 12.5801 54.3181 11.896 55.2503 11.3998C56.1825 10.8886 57.235 10.633 58.4078 10.633C59.5656 10.633 60.588 10.8736 61.4751 11.3547C62.3622 11.8208 63.0539 12.4749 63.55 13.3169C64.0612 14.1589 64.3169 15.1212 64.3169 16.2037C64.3169 16.4293 64.3018 16.6698 64.2717 16.9254C64.2567 17.166 64.2116 17.4517 64.1364 17.7825L54.1226 17.8501V15.1437L62.49 15.076L60.4376 16.2714C60.4376 15.67 60.3625 15.1813 60.2121 14.8054C60.0768 14.4145 59.8663 14.1213 59.5806 13.9258C59.2949 13.7303 58.9341 13.6326 58.498 13.6326C58.047 13.6326 57.656 13.7454 57.3252 13.9709C56.9945 14.1965 56.7388 14.5197 56.5584 14.9407C56.393 15.3617 56.3103 15.8729 56.3103 16.4744C56.3103 17.0908 56.4005 17.6096 56.581 18.0306C56.7764 18.4365 57.0546 18.7448 57.4155 18.9553C57.7763 19.1658 58.2274 19.271 58.7687 19.271C59.2949 19.271 59.7535 19.1883 60.1444 19.0229C60.5504 18.8425 60.9188 18.5643 61.2496 18.1884L63.4598 20.3761C62.9035 21.0076 62.2344 21.4813 61.4525 21.797C60.6707 22.1128 59.7761 22.2706 58.7687 22.2706ZM70.0578 22.3383C69.3662 22.3383 68.6745 22.2481 67.9829 22.0677C67.2912 21.8872 66.6447 21.6391 66.0433 21.3234C65.4569 21.0076 64.9607 20.6468 64.5547 20.2408L66.8777 17.8501C67.2386 18.211 67.6671 18.4967 68.1633 18.7072C68.6745 18.9177 69.2083 19.0229 69.7646 19.0229C70.0202 19.0229 70.2157 18.9929 70.351 18.9327C70.5014 18.8575 70.5765 18.7598 70.5765 18.6395C70.5765 18.429 70.4487 18.2711 70.1931 18.1659C69.9526 18.0606 69.6368 17.9629 69.2459 17.8727C68.87 17.7825 68.464 17.6697 68.028 17.5344C67.607 17.384 67.201 17.1886 66.8101 16.948C66.4192 16.6924 66.1034 16.3466 65.8628 15.9105C65.6223 15.4595 65.502 14.8881 65.502 14.1965C65.502 13.4898 65.6974 12.8658 66.0884 12.3245C66.4943 11.7682 67.0582 11.3322 67.7799 11.0164C68.5166 10.6856 69.3662 10.5202 70.3284 10.5202C71.3058 10.5202 72.253 10.6856 73.1702 11.0164C74.0874 11.3472 74.8166 11.8434 75.3579 12.5049L73.0123 14.8956C72.6364 14.4746 72.2229 14.1965 71.7719 14.0611C71.3208 13.9108 70.9449 13.8356 70.6442 13.8356C70.3585 13.8356 70.1555 13.8807 70.0352 13.9709C69.93 14.0461 69.8774 14.1438 69.8774 14.2641C69.8774 14.4295 69.9977 14.5648 70.2382 14.6701C70.4788 14.7753 70.787 14.8731 71.1629 14.9633C71.5539 15.0535 71.9598 15.1738 72.3808 15.3241C72.8018 15.4745 73.2003 15.685 73.5762 15.9556C73.9671 16.2263 74.2828 16.5871 74.5234 17.0382C74.764 17.4742 74.8843 18.0456 74.8843 18.7523C74.8843 19.8499 74.4482 20.722 73.5762 21.3685C72.7041 22.015 71.5313 22.3383 70.0578 22.3383Z" fill="#C03636"/>
<path d="M80.508 22V18.7523H83.4626C84.0339 18.7523 84.4925 18.6019 84.8383 18.3012C85.1842 17.9855 85.3571 17.5569 85.3571 17.0157C85.3571 16.6548 85.2744 16.3466 85.109 16.091C84.9586 15.8203 84.7406 15.6173 84.4549 15.482C84.1843 15.3467 83.8535 15.279 83.4626 15.279H80.508V12.1666H83.2596C83.7407 12.1666 84.1392 12.0463 84.4549 11.8058C84.7707 11.5652 84.9285 11.1893 84.9285 10.6781C84.9285 10.1669 84.7707 9.79099 84.4549 9.55042C84.1392 9.30984 83.7407 9.18956 83.2596 9.18956H80.508V5.94184H84.5226C85.4999 5.94184 86.3494 6.12979 87.0711 6.50568C87.8079 6.86654 88.3792 7.37024 88.7852 8.01677C89.1912 8.64827 89.3942 9.37751 89.3942 10.2045C89.3942 11.3472 88.9882 12.2794 88.1763 13.0011C87.3643 13.7228 86.1765 14.1363 84.6128 14.2416L84.5677 12.6854C86.2667 12.7906 87.5673 13.2567 88.4695 14.0837C89.3716 14.9107 89.8227 15.9707 89.8227 17.2637C89.8227 18.196 89.5896 19.0229 89.1235 19.7446C88.6574 20.4513 88.0034 21.0076 87.1614 21.4136C86.3344 21.8045 85.3646 22 84.2519 22H80.508ZM76.8544 22V5.94184H81.2749V22H76.8544ZM109.224 22.2706C108.021 22.2706 106.939 22.0226 105.977 21.5264C105.014 21.0302 104.255 20.3461 103.699 19.474C103.142 18.5869 102.864 17.587 102.864 16.4744C102.864 15.3467 103.142 14.3468 103.699 13.4747C104.27 12.5876 105.037 11.896 105.999 11.3998C106.976 10.8886 108.074 10.633 109.292 10.633C110.164 10.633 110.946 10.7683 111.637 11.039C112.344 11.3096 112.998 11.7231 113.6 12.2794L110.826 15.0535C110.63 14.8731 110.412 14.7377 110.171 14.6475C109.931 14.5573 109.638 14.5122 109.292 14.5122C108.931 14.5122 108.6 14.5949 108.3 14.7603C108.014 14.9107 107.781 15.1287 107.6 15.4144C107.42 15.7 107.33 16.0383 107.33 16.4293C107.33 16.8202 107.42 17.166 107.6 17.4667C107.781 17.7524 108.021 17.9779 108.322 18.1433C108.623 18.3087 108.946 18.3914 109.292 18.3914C109.683 18.3914 110.006 18.3313 110.262 18.211C110.517 18.0907 110.743 17.9253 110.938 17.7148L113.712 20.4889C113.066 21.0903 112.389 21.5414 111.683 21.8421C110.976 22.1278 110.156 22.2706 109.224 22.2706ZM122.145 22L119.055 16.1586L122.122 10.9036H126.881L122.912 16.8352L123.024 15.3918L127.107 22H122.145ZM114.995 22V5.49077H119.416V22H114.995ZM133.433 22.2706C132.14 22.2706 131.005 22.0301 130.028 21.5489C129.05 21.0527 128.284 20.3686 127.727 19.4966C127.186 18.6094 126.915 17.5945 126.915 16.4518C126.915 15.3241 127.179 14.3243 127.705 13.4522C128.246 12.5801 128.983 11.896 129.915 11.3998C130.847 10.8886 131.9 10.633 133.073 10.633C134.23 10.633 135.253 10.8736 136.14 11.3547C137.027 11.8208 137.719 12.4749 138.215 13.3169C138.726 14.1589 138.982 15.1212 138.982 16.2037C138.982 16.4293 138.967 16.6698 138.936 16.9254C138.921 17.166 138.876 17.4517 138.801 17.7825L128.787 17.8501V15.1437L137.155 15.076L135.102 16.2714C135.102 15.67 135.027 15.1813 134.877 14.8054C134.742 14.4145 134.531 14.1213 134.245 13.9258C133.96 13.7303 133.599 13.6326 133.163 13.6326C132.712 13.6326 132.321 13.7454 131.99 13.9709C131.659 14.1965 131.404 14.5197 131.223 14.9407C131.058 15.3617 130.975 15.8729 130.975 16.4744C130.975 17.0908 131.065 17.6096 131.246 18.0306C131.441 18.4365 131.719 18.7448 132.08 18.9553C132.441 19.1658 132.892 19.271 133.433 19.271C133.96 19.271 134.418 19.1883 134.809 19.0229C135.215 18.8425 135.584 18.5643 135.914 18.1884L138.125 20.3761C137.568 21.0076 136.899 21.4813 136.117 21.797C135.335 22.1128 134.441 22.2706 133.433 22.2706ZM141.57 22V6.34781H145.99V22H141.57ZM139.202 14.5122V10.9036H148.358V14.5122H139.202Z" fill="#EBB52C"/>
<path d="M97.5819 22.1442L97.8967 13.6444M95.0634 22.1442L94.7486 13.6444M98.8411 22.1442H93.8041M98.8411 13.6444H93.8041M92.5449 13.6444C92.5449 13.6444 92.2301 12.6999 92.7023 12.2277C93.1745 11.7555 94.1189 11.9129 94.1189 11.9129C94.1189 11.9129 94.1189 10.9685 94.7486 10.6537C95.3782 10.3388 96.3226 10.8111 96.3226 10.8111C96.3226 10.8111 96.9522 9.75424 97.8967 10.024C98.8411 10.2938 98.8411 11.4407 98.8411 11.4407C98.8411 11.4407 99.6281 11.4407 100.1 12.0703C100.573 12.6999 100.1 13.6444 100.1 13.6444M99.6898 21.1582L101.36 13.6444H91.2856L92.9554 21.1582C93.0605 21.6308 93.1128 21.8672 93.2856 22.0057C93.4582 22.1442 93.7002 22.1442 94.1847 22.1442H98.4602C98.9447 22.1442 99.1868 22.1442 99.3593 22.0057C99.5321 21.8672 99.5844 21.6311 99.6898 21.1582V21.1582Z" stroke="#F5BF34" stroke-width="1.12768" stroke-linecap="round" stroke-linejoin="round"/>
</svg>
